<svg width="10" height="10" viewBox="0 0 10 10" fill="none" xmlns="http://www.w3.org/2000/svg">
<path fill-rule="evenodd" clip-rule="evenodd" d="M4.99997 0C4.60548 0 4.28569 0.319797 4.28569 0.714286V4.28571H0.714286C0.319797 4.28571 0 4.60551 0 5C0 5.39448 0.319797 5.71428 0.714286 5.71428H4.28569V9.28571C4.28569 9.6802 4.60548 10 4.99997 10C5.39446 10 5.71426 9.6802 5.71426 9.28571V5.71428H9.28571C9.6802 5.71428 10 5.39449 10 5C10 4.60551 9.6802 4.28571 9.28571 4.28571H5.71426V0.714286C5.71426 0.319797 5.39446 0 4.99997 0Z" fill="#023E4A"/>
</svg>
